<mxfile host="65bd71144e">
    <diagram id="8iH56mFGjFX-gQbeeyCd" name="Page-1">
        <mxGraphModel dx="425" dy="322" grid="1" gridSize="10" guides="1" tooltips="1" connect="1" arrows="1" fold="1" page="1" pageScale="1" pageWidth="850" pageHeight="1100" math="0" shadow="0">
            <root>
                <mxCell id="0"/>
                <mxCell id="1" parent="0"/>
                <mxCell id="5" value="&lt;font color=&quot;#000000&quot;&gt;&lt;b&gt;Lua shell&lt;/b&gt;&lt;/font&gt;" style="ellipse;whiteSpace=wrap;html=1;aspect=fixed;fillColor=#7DEB6C;strokeColor=#36393d;align=left;" parent="1" vertex="1">
                    <mxGeometry x="300" y="412.5" width="215" height="215" as="geometry"/>
                </mxCell>
                <mxCell id="3" value="&lt;div style=&quot;&quot;&gt;&lt;span style=&quot;background-color: initial;&quot;&gt;&lt;b&gt;&amp;nbsp;(Kernel)&lt;br&gt;Lua VM&lt;/b&gt;&lt;/span&gt;&lt;/div&gt;" style="ellipse;whiteSpace=wrap;html=1;aspect=fixed;fillColor=#fa6800;fontColor=#000000;strokeColor=#C73500;align=left;" parent="1" vertex="1">
                    <mxGeometry x="360" y="442.5" width="155" height="155" as="geometry"/>
                </mxCell>
                <mxCell id="2" value="&lt;b&gt;Platform layer&lt;/b&gt;" style="ellipse;whiteSpace=wrap;html=1;aspect=fixed;fillColor=#e3c800;fontColor=#000000;strokeColor=#B09500;" parent="1" vertex="1">
                    <mxGeometry x="410" y="467.5" width="105" height="105" as="geometry"/>
                </mxCell>
            </root>
        </mxGraphModel>
    </diagram>
</mxfile>